<svg xmlns="http://www.w3.org/2000/svg" width="346.667" height="346.667" viewBox="0 0 260 260" preserveAspectRatio="xMidYMid meet"><path d="M0 130v130h260V0H0v130zm227-64v33h-23.8l-.7-3.3c-1.8-8.3-8.9-15.4-17.9-17.8-2.3-.6-7.3-.9-11.2-.7-8.1.5-14.3 3.5-18.8 8.9l-2.6 3.1v43.2c0 47.5.2 49.4 6 57.4 5.1 7.1 10.9 10.5 21.3 12.7l2.7.5v24H78v-24l2.8-.5c10.3-2.2 16.1-5.6 21.2-12.7 5.8-8 6-9.9 6-57.4V89.2l-2.6-3.1c-4.5-5.4-10.7-8.4-18.8-8.9-8.2-.5-13.5.7-19.2 4.4-4.8 3.1-8.2 7.8-9.6 13.3l-1 4.1H33V33h194v33z" fill="#fff"/></svg>